<?xml version="1.0" encoding="UTF-8"?>
<svg width="3000px" height="2000px" viewBox="0 0 3000 2000" version="1.1" xmlns="http://www.w3.org/2000/svg" xmlns:xlink="http://www.w3.org/1999/xlink">
    <title>Success</title>
    <defs>
        <polygon id="path-1" points="0.007 0.759 1854.98 0.759 1854.98 1678 0.007 1678"></polygon>
    </defs>
    <g id="Success" stroke="none" stroke-width="1" fill="none" fill-rule="evenodd">
        <polygon id="Fill-1" fill="#FFFFFF" points="0 2000 3000 2000 3000 0 0 0"></polygon>
        <path d="M1126.3,1766.06 C1106.38,1756.52 1084.3,1748.81 1060.64,1743.53 C1037.83,1738.44 1015.39,1736.03 994.016,1736.03 C978.891,1736.03 964.298,1737.24 950.5,1739.56 C928.98,1705.13 891.55,1682.15 848.742,1681.74 C848.351,1681.74 847.966,1681.73 847.575,1681.73 C808.214,1681.73 773.12,1700.89 750.723,1730.68 C712.448,1696.23 646.359,1673.1 570.995,1672.37 C569.78,1672.36 568.578,1672.35 567.367,1672.35 C501.545,1672.35 442.725,1689.58 403.594,1716.8 C377.882,1682.75 333.642,1660.04 283.158,1659.56 C282.611,1659.55 282.068,1659.55 281.521,1659.55 C245.98,1659.55 213.418,1670.64 188.193,1689.04 C164.745,1612.21 93.112,1550.06 0,1524.25 L0,1119.31 C10.058,1118.68 20.234,1118.36 30.489,1118.36 C49.777,1118.36 69.401,1119.5 89.213,1121.85 C226.683,1138.15 340.901,1208.77 400.654,1302.19 C429.472,1347.24 478.498,1374.98 531.657,1374.98 C533.625,1374.98 535.607,1374.94 537.586,1374.86 C540.468,1374.75 543.365,1374.69 546.277,1374.69 C555.131,1374.69 564.112,1375.22 573.174,1376.29 C612.752,1380.98 648.363,1395.54 677.045,1416.7 C703.798,1436.43 736.129,1446.44 768.907,1446.44 C780.89,1446.44 792.935,1445.1 804.786,1442.41 C834.062,1435.77 866.156,1432.2 899.937,1432.2 C919.003,1432.2 938.61,1433.33 958.544,1435.7 C1021.39,1443.15 1078.17,1461.69 1123.31,1487.11 C1147.51,1500.73 1174.63,1507.98 1201.79,1507.98 C1219.56,1507.98 1237.33,1504.87 1254.31,1498.42 C1272.32,1491.57 1291.67,1487.85 1311.67,1487.85 C1317.74,1487.85 1323.86,1488.2 1330.03,1488.9 L1310.17,1572.33 L1384.35,1572.33 L1404.26,1516.91 C1413.35,1523.24 1421.76,1530.47 1429.38,1538.47 C1432.33,1541.57 1435.41,1544.52 1438.59,1547.33 C1440.01,1547.15 1441.43,1546.94 1442.84,1546.78 C1471.87,1543.48 1497.89,1528.07 1516.75,1505.75 C1518.74,1503.39 1520.8,1501.09 1522.92,1498.85 C1521.67,1523.32 1520.18,1547.46 1518.61,1570.74 L1586.54,1570.74 C1594.94,1531.14 1601.93,1491.63 1607.43,1452.16 C1609.98,1451.66 1612.54,1451.22 1615.13,1450.84 C1622.83,1449.72 1630.48,1449.17 1638.04,1449.17 C1659.78,1449.17 1680.8,1453.68 1700.1,1461.93 C1713.66,1467.73 1727.97,1470.52 1742.25,1470.52 C1764.31,1470.52 1786.3,1463.86 1805.29,1451.3 C1850.37,1421.48 1909.95,1398.87 1977.01,1389.08 C2000.75,1385.61 2024.05,1383.96 2046.55,1383.96 C2080.66,1383.96 2112.91,1387.77 2142.02,1394.87 C2150.93,1397.04 2159.97,1398.12 2168.95,1398.12 C2195.62,1398.11 2221.72,1388.66 2242.18,1370.63 C2270.93,1345.3 2308.65,1327.26 2351.49,1321 C2362.32,1319.42 2373.04,1318.66 2383.59,1318.66 C2389.89,1318.66 2396.13,1318.93 2402.29,1319.47 C2405.41,1319.74 2408.51,1319.87 2411.6,1319.87 C2452.46,1319.87 2489.83,1296.53 2509.08,1259.81 C2561.64,1159.6 2675.92,1080.63 2817.05,1060.03 C2840.72,1056.58 2864.1,1054.91 2887.05,1054.91 C2926.41,1054.91 2964.41,1059.82 3000,1069.02 L3000,1412.93 C2902.95,1441.72 2829.95,1509.43 2809.64,1590.34 C2785.63,1574.62 2755.74,1565.37 2723.49,1565.37 C2720.12,1565.37 2716.73,1565.47 2713.32,1565.68 C2662.92,1568.7 2619.88,1593.61 2595.91,1628.91 C2559.35,1606.11 2507.12,1592.28 2448.87,1592.28 C2441.5,1592.28 2434.03,1592.51 2426.49,1592.96 C2351.26,1597.47 2286.41,1623.9 2249.92,1660.23 C2227.29,1633.09 2193.73,1616.07 2156.8,1616.07 C2154.4,1616.07 2151.99,1616.14 2149.56,1616.29 C2106.83,1618.85 2070.6,1643.68 2050.84,1679.15 C2041.28,1678.03 2031.37,1677.46 2021.2,1677.46 C1995.7,1677.46 1968.54,1681.05 1941.04,1688.66 C1886.24,1703.82 1840.73,1731.92 1811.89,1764.83 L1668.65,1645.46 L1214.97,1645.46 L1126.3,1766.06" id="Fill-2" fill="#FFF1ED"></path>
        <path d="M3000,2000 L2240.37,2000 L2112.32,1879.85 L1846.4,1793.59 L1811.89,1764.83 C1840.73,1731.92 1886.24,1703.82 1941.04,1688.66 C1968.54,1681.05 1995.7,1677.46 2021.2,1677.46 C2031.37,1677.46 2041.28,1678.03 2050.84,1679.15 C2070.6,1643.68 2106.83,1618.85 2149.56,1616.29 C2151.99,1616.14 2154.4,1616.07 2156.8,1616.07 C2193.73,1616.07 2227.29,1633.09 2249.92,1660.23 C2286.41,1623.9 2351.26,1597.47 2426.49,1592.96 C2434.03,1592.51 2441.5,1592.28 2448.87,1592.28 C2507.12,1592.28 2559.35,1606.11 2595.91,1628.91 C2619.88,1593.61 2662.92,1568.7 2713.32,1565.68 C2716.73,1565.47 2720.12,1565.37 2723.49,1565.37 C2755.74,1565.37 2785.63,1574.62 2809.64,1590.34 C2829.95,1509.43 2902.95,1441.72 3000,1412.93 L3000,2000" id="Fill-3" fill="#FFDDD2"></path>
        <path d="M735.002,2000 L0,2000 L0,1524.25 C93.112,1550.06 164.745,1612.21 188.193,1689.04 C213.418,1670.64 245.98,1659.55 281.521,1659.55 C282.068,1659.55 282.611,1659.55 283.158,1659.56 C333.642,1660.04 377.882,1682.75 403.594,1716.8 C442.725,1689.58 501.545,1672.35 567.367,1672.35 C568.578,1672.35 569.78,1672.36 570.995,1672.37 C646.359,1673.1 712.448,1696.23 750.723,1730.68 C773.12,1700.89 808.214,1681.73 847.575,1681.73 C847.966,1681.73 848.351,1681.74 848.742,1681.74 C891.55,1682.15 928.98,1705.13 950.5,1739.56 C964.298,1737.24 978.891,1736.03 994.016,1736.03 C1015.39,1736.03 1037.83,1738.44 1060.64,1743.53 C1084.3,1748.81 1106.38,1756.52 1126.3,1766.06 L1115.15,1781.22 L899.502,1848.31 L741.358,1987.29 L735.002,2000" id="Fill-4" fill="#FFDDD2"></path>
        <path d="M2504,795.599 C2504,799.36 2503.28,803 2501.96,806.44 L2385.68,806.44 L2385.48,806.201 L2385.4,806.44 C2385.4,806.44 2382.28,806.44 2376.64,806.52 C2319.08,806.84 1997.32,808.639 1997.32,805.8 C1997.32,773 2022.4,746.44 2053.32,746.44 C2060.56,746.44 2067.48,747.88 2073.8,750.52 C2079.68,745.48 2087.2,742.52 2095.32,742.52 C2107.08,742.52 2117.52,748.76 2123.76,758.319 C2123.84,758.16 2123.92,757.96 2124,757.8 C2130,745.04 2141.68,734.281 2156.8,727.24 C2168.92,721.56 2183.2,718.281 2198.56,718.281 C2203,718.281 2207.36,718.56 2211.6,719.08 C2227.88,687.319 2259.68,665.719 2296.24,665.719 C2343,665.719 2382.04,701.08 2390.72,747.96 C2395.96,744.52 2402.16,742.52 2408.8,742.52 C2422.12,742.52 2433.68,750.48 2439.4,762.2 C2445.16,760.12 2451.52,758.96 2458.24,758.96 C2476.32,758.96 2491.92,767.36 2499.36,779.52 C2502.32,784.359 2504,789.84 2504,795.599" id="Fill-5" fill="#FFDDD2"></path>
        <path d="M2499.36,779.52 C2487.56,776.37 2475.09,775.802 2462.68,775.802 C2459.48,775.802 2456.3,775.839 2453.12,775.88 C2418.48,776.281 2383.88,776.679 2349.24,777.08 C2348.83,777.085 2348.41,777.087 2348,777.087 C2329.06,777.088 2311.05,772.13 2293,767.172 C2274.97,762.216 2256.9,757.259 2237.85,757.259 C2234.73,757.259 2231.58,757.392 2228.4,757.68 C2208.08,759.56 2187.4,767.84 2167.88,769 C2166.03,769.11 2164.14,769.167 2162.22,769.167 C2148.04,769.168 2132.42,766.044 2124,757.8 C2130,745.04 2141.68,734.281 2156.8,727.24 C2168.92,721.56 2183.2,718.281 2198.56,718.281 C2203,718.281 2207.36,718.56 2211.6,719.08 C2227.88,687.319 2259.68,665.719 2296.24,665.719 C2343,665.719 2382.04,701.08 2390.72,747.96 C2395.96,744.52 2402.16,742.52 2408.8,742.52 C2422.12,742.52 2433.68,750.48 2439.4,762.2 C2445.16,760.12 2451.52,758.96 2458.24,758.96 C2476.32,758.96 2491.92,767.36 2499.36,779.52" id="Fill-6" fill="#FFF1ED"></path>
        <path d="M998.08,1017.6 C998.08,1020.08 997.6,1022.48 996.72,1024.72 L920.4,1024.72 L920.24,1024.56 L920.2,1024.72 C920.2,1024.72 665.399,1026.36 665.399,1024.28 C665.399,1002.76 681.84,985.319 702.16,985.319 C706.92,985.319 711.44,986.28 715.6,988 C719.48,984.719 724.4,982.76 729.72,982.76 C737.44,982.76 744.28,986.84 748.4,993.12 C753.92,980.96 767.24,971.56 783.88,968.24 C788.2,967.32 792.8,966.84 797.52,966.84 C800.44,966.84 803.28,967 806.08,967.36 C816.76,946.52 837.639,932.32 861.639,932.32 C892.36,932.32 917.96,955.56 923.68,986.32 C927.12,984.04 931.2,982.76 935.56,982.76 C944.28,982.76 951.88,988 955.64,995.679 C959.4,994.32 963.6,993.52 968.04,993.52 C984.6,993.52 998.08,1004.32 998.08,1017.6" id="Fill-7" fill="#FFDDD2"></path>
        <path d="M952.48,1024.72 C949.76,1020.48 947.84,1015.68 944.52,1011.88 C929.4,994.6 897.92,1008.44 879.679,994.52 C876.36,992 873.68,988.68 870.24,986.36 C866.094,983.606 861.415,982.603 856.521,982.603 C848.901,982.603 840.757,985.034 833.28,987.08 C826.788,988.858 819.869,990.219 813.142,990.219 C806.852,990.219 800.73,989.03 795.28,985.88 C789.321,982.44 784.64,975.32 783.88,968.24 C788.2,967.32 792.8,966.84 797.52,966.84 C800.44,966.84 803.28,967 806.08,967.36 C816.76,946.52 837.639,932.32 861.639,932.32 C892.36,932.32 917.96,955.56 923.68,986.32 C927.12,984.04 931.2,982.76 935.56,982.76 C944.28,982.76 951.88,988 955.64,995.679 C959.4,994.32 963.6,993.52 968.04,993.52 C984.6,993.52 998.08,1004.32 998.08,1017.6 C998.08,1020.08 997.6,1022.48 996.72,1024.72 L952.48,1024.72 Z" id="Fill-8" fill="#FFF1ED"></path>
        <path d="M1237.76,458.48 C1237.76,461.52 861.6,459.08 861.6,459.08 L861.56,458.88 L861.32,459.08 L748.639,459.08 C747.36,455.76 746.68,452.241 746.68,448.599 C746.68,428.96 766.52,413.08 791,413.08 C797.52,413.08 803.72,414.2 809.28,416.2 C814.839,404.88 826.04,397.16 838.96,397.16 C845.36,397.16 851.36,399.08 856.44,402.4 C864.88,356.96 902.72,322.72 948.04,322.72 C948.36,322.72 948.679,322.72 949,322.759 C984.04,323.08 1014.44,343.92 1030.08,374.44 C1034.16,373.919 1038.4,373.639 1042.72,373.639 C1076.32,373.639 1104.92,389.84 1115.2,412.44 C1121.28,403.2 1131.36,397.16 1142.76,397.16 C1150.64,397.16 1157.92,400.04 1163.64,404.92 C1169.76,402.36 1176.48,400.96 1183.48,400.96 C1205.2,400.96 1223.92,414.48 1232.6,434 C1235.92,441.399 1237.76,449.719 1237.76,458.48" id="Fill-9" fill="#FFDDD2"></path>
        <g id="Group-15" transform="translate(588.000000, 322.000000)">
            <mask id="mask-2" fill="white">
                <use xlink:href="#path-1"></use>
            </mask>
            <g id="Clip-11"></g>
            <path d="M567.92,119.103 C532.63,119.103 496.93,116.037 467.32,97.76 C454.84,90.08 443.84,79.88 430.4,74.08 C407.92,64.359 379.04,66.96 362.48,48.96 C351.759,37.32 349.84,18.44 358.04,4.879 C358.92,3.44 359.88,2.04 361,0.759 C396.04,1.08 426.44,21.92 442.08,52.44 C446.16,51.919 450.4,51.639 454.72,51.639 C488.32,51.639 516.92,67.84 527.2,90.44 C533.28,81.2 543.36,75.16 554.76,75.16 C562.64,75.16 569.92,78.04 575.64,82.92 C581.76,80.36 588.48,78.96 595.48,78.96 C617.2,78.96 635.92,92.48 644.6,112 C627.68,117.679 608.64,118.4 590.52,118.799 C583.05,118.962 575.49,119.103 567.92,119.103" id="Fill-10" fill="#FFF1ED" mask="url(#mask-2)"></path>
            <polyline id="Fill-12" fill="#175F58" mask="url(#mask-2)" points="1854.98 1962.41 345.766 1970.22 0.008 1971.99 153.358 1665.29 311.502 1526.31 527.15 1459.22 626.97 1323.46 1080.65 1323.46 1258.4 1471.59 1524.32 1557.85 1679.68 1703.63 1683.37 1709.09 1850.28 1955.51 1854.98 1962.41"></polyline>
            <polyline id="Fill-13" fill="#1D7E74" mask="url(#mask-2)" points="1652.37 1678 1098.39 1678 1018.35 1567.05 1003.16 1460.8 865.33 1426 812 1323.46 1080.65 1323.46 1258.4 1471.59 1524.32 1557.85 1652.37 1678"></polyline>
            <polyline id="Fill-14" fill="#134A45" mask="url(#mask-2)" points="633.38 1550.28 409.743 1681.26 345.767 1970.22 0.007 1971.99 153.358 1665.29 311.502 1526.31 527.15 1459.22 626.97 1323.46 633.38 1550.28"></polyline>
        </g>
        <path d="M1580.71,1594.66 L1581.12,1557.37 L1527.1,1561.19 L1525.54,1592 C1542.76,1595.58 1562.34,1596.49 1580.71,1594.66" id="Fill-16" fill="#F9B384"></path>
        <path d="M1639.18,1645.24 C1624.53,1621.26 1604.5,1613.25 1580.59,1610.22 L1580.71,1594.66 C1562.34,1596.49 1542.76,1595.58 1525.54,1592 L1522.86,1645.24 L1639.18,1645.24" id="Fill-17" fill="#134A45"></path>
        <path d="M1312.56,1598.29 L1307.62,1609.58 C1283.71,1612.62 1262.31,1625.49 1242.67,1645.24 L1356.02,1645.24 L1368.08,1598.43 C1348.73,1601.72 1330.27,1601.48 1312.56,1598.29" id="Fill-18" fill="#134A45"></path>
        <path d="M1368.08,1598.43 L1377.67,1561.19 L1329.91,1558.64 L1312.56,1598.29 C1330.27,1601.48 1348.73,1601.72 1368.08,1598.43" id="Fill-19" fill="#F9B384"></path>
        <path d="M1605.64,1015.45 C1634.08,1200.55 1626.02,1384.8 1586.54,1570.74 L1518.61,1570.74 C1526.72,1450.05 1532.92,1306.59 1513.94,1211.59 L1384.35,1572.33 L1310.17,1572.33 L1432.43,1058.76 L1474.46,976.399 L1572.95,964.512 L1605.64,1015.45" id="Fill-20" fill="#134A45"></path>
        <path d="M1696.06,620.644 L1714.32,565.879 L1763.74,577.422 C1767.46,595.76 1745.25,623.584 1728.75,644.417 L1696.06,620.644" id="Fill-21" fill="#F9B384"></path>
        <polyline id="Fill-22" fill="#F9B384" points="1529.43 816.113 1472.52 816.776 1466.87 742.246 1466.21 733.331 1523.37 732.821 1525.4 761.094 1529.43 816.113"></polyline>
        <path d="M1525.08,755.962 C1506.46,769.255 1482.1,760.977 1466.87,742.246 L1466.21,733.331 L1523.37,732.821 L1525.08,755.962" id="Fill-23" fill="#102048"></path>
        <path d="M1511.8,749.72 C1482.92,756.32 1450.68,737.8 1437.96,713.2 L1436.24,669.04 L1452.4,646.12 L1521.16,652.04 C1520.84,652.12 1520.88,653.08 1521.16,654.72 C1521.96,659 1524.6,668.12 1527.04,679.12 C1533.04,705.88 1537.84,743.76 1511.8,749.72" id="Fill-24" fill="#F9B384"></path>
        <path d="M1463.42,787.908 C1463.42,787.908 1505.88,821.87 1542.81,773.473 L1612.86,1006.11 C1569.97,1036.42 1515.75,1046.89 1450.69,1038.38 L1463.42,787.908" id="Fill-25" fill="#FFFFFF"></path>
        <path d="M1499.98,825.162 C1490.15,825.162 1480.39,822.221 1472.52,816.776 C1478.4,818.898 1484.41,820.187 1490.41,820.844 C1492.69,821.075 1494.97,821.199 1497.24,821.199 C1500.96,821.199 1504.66,820.866 1508.29,820.126 C1514.1,818.985 1519.86,817.157 1525.14,814.234 C1527.92,813.012 1530.34,811.152 1532.98,809.59 C1535.59,807.951 1537.86,805.864 1540.5,804.116 C1538.55,806.536 1536.52,808.969 1534.29,811.21 C1531.88,813.224 1529.62,815.534 1526.82,817.098 C1521.57,820.789 1515.36,823.005 1509.06,824.303 C1506.06,824.88 1503.02,825.162 1499.98,825.162" id="Fill-26" fill="#BBC4DB"></path>
        <path d="M1694.15,610.455 C1655.75,675.313 1618.28,732.305 1584.42,759.463 C1579.4,763.494 1572.99,765.298 1566.56,764.965 C1553.82,764.307 1540.68,765.864 1526.04,769.334 C1529.11,885.713 1540.15,993.516 1579.74,1059.61 C1603.59,1052.73 1632.52,1041.67 1648.52,1028.19 C1635.49,983.968 1620.08,920.566 1608.61,865.172 L1735.54,638.474 L1694.15,610.455" id="Fill-27" fill="#175F58"></path>
        <path d="M1527.04,679.12 C1483.33,704 1447,658.667 1447,658.667 L1521.16,654.72 C1521.96,659 1524.6,668.12 1527.04,679.12" id="Fill-28" fill="#E28B6D"></path>
        <path d="M1447.71,704.7 C1453.07,697.769 1455.52,686.125 1450.69,662.672 C1466.61,680.682 1490.28,684.89 1524.98,669.464 C1524.98,669.464 1547.55,660.631 1542.38,637.625 C1537.71,616.823 1520.31,605.785 1506.72,622.766 C1475.9,613.77 1445.59,612.153 1432.01,640.172 C1432.01,640.172 1388.71,662.672 1425.64,699.181 L1447.71,704.7" id="Fill-29" fill="#102048"></path>
        <polyline id="Fill-30" fill="#1F3C88" points="1384.58 1185.35 1377.12 1183.69 1384.9 1148.82 1333.46 1136.31 1326.64 1168.13 1319.17 1166.53 1327.63 1127.03 1393.99 1143.17 1384.58 1185.35"></polyline>
        <path d="M1354.32,1075.43 C1353.04,1077.2 1348.38,1113.1 1348.38,1113.1 C1348.38,1113.1 1327.57,1132.61 1341.58,1144.58 C1355.59,1156.54 1372.57,1156.1 1380.64,1147.23 C1383.45,1138.57 1383.67,1128.43 1380.21,1116.21 L1388.28,1076.31 L1354.32,1075.43" id="Fill-31" fill="#F9B384"></path>
        <polygon id="Fill-32" fill="#70C3BB" points="1402.12 1269.92 1394.22 1303.49 1260.91 1253.41 1286.84 1145.16 1422.65 1182.96"></polygon>
        <polyline id="Fill-33" fill="#6F3428" points="1796.25 604.763 1725.46 647.678 1722.29 622.792 1775.65 590.441 1796.25 604.763"></polyline>
        <polyline id="Fill-34" fill="#BB9132" points="1758.04 601.115 1739.89 612.119 1696.8 550.867 1723.67 534.581 1758.04 601.115"></polyline>
        <path d="M1727.31,532.423 L1693.21,553.094 C1685.57,557.722 1675.7,556.054 1670.01,549.173 L1612.95,480.174 L1699.77,427.541 L1734.56,510.042 C1738.03,518.269 1734.94,527.795 1727.31,532.423" id="Fill-35" fill="#FBC343"></path>
        <path d="M1723.12,488.895 L1718.42,486.939 C1731.52,455.396 1729.24,429.771 1719.62,424.12 C1714.6,421.182 1707.67,424.649 1700.58,433.631 L1696.58,430.475 C1709.13,414.573 1718.67,417.66 1722.19,419.726 C1733.92,426.609 1737.47,454.362 1723.12,488.895" id="Fill-36" fill="#FBC343"></path>
        <path d="M1655.19,530.131 C1617.94,526.878 1594.98,510.891 1594.3,497.314 C1594.1,493.238 1595.77,483.351 1615.67,479.583 L1616.62,484.586 C1605.38,486.717 1599.1,491.262 1599.39,497.061 C1599.94,508.21 1621.61,522.083 1655.63,525.057 L1655.19,530.131" id="Fill-37" fill="#FBC343"></path>
        <path d="M1695.76,478.847 C1692.78,478.847 1689.18,476.299 1686.82,472.219 C1683.83,467.04 1683.98,461.355 1687.16,459.519 C1687.83,459.13 1688.59,458.946 1689.39,458.946 C1692.37,458.946 1695.97,461.494 1698.33,465.575 C1701.32,470.753 1701.17,476.438 1697.99,478.274 C1697.31,478.663 1696.56,478.847 1695.76,478.847" id="Fill-38" fill="#FDE7B4"></path>
        <path d="M1763.7,576.128 C1764.94,584.955 1759.36,592.836 1747.59,592.836 C1740.24,592.836 1729.93,582.748 1727.77,570.769 C1725.98,560.89 1729.77,554.414 1736.75,551.538 C1743.91,548.589 1761.36,559.476 1763.7,576.128" id="Fill-39" fill="#F9B384"></path>
        <polyline id="Fill-40" fill="#FBC343" points="1598.07 442.76 1536.09 423.23 1538.49 415.602 1600.48 435.131 1598.07 442.76"></polyline>
        <polyline id="Fill-41" fill="#FBC343" points="1667.75 399.801 1659.88 398.41 1671.17 334.414 1679.04 335.805 1667.75 399.801"></polyline>
        <polyline id="Fill-42" fill="#FBC343" points="1621.49 410.307 1586.45 355.576 1593.19 351.264 1628.22 405.994 1621.49 410.307"></polyline>
        <path d="M1427.76,933.097 L1417.57,1086.78 C1474.46,1084.23 1512.67,1065.55 1512.67,1065.55 C1517.61,973.825 1505.83,871.191 1469.52,778.887 C1377.32,813.152 1351.31,926.684 1337.63,1095.39 L1391.65,1101.66 L1427.76,933.097" id="Fill-43" fill="#175F58"></path>
        <path d="M1448.56,719.983 C1431.22,726.17 1420.13,724.77 1419.21,708.191 C1418.68,698.676 1428.48,691.098 1437.12,695.116 C1440.87,696.858 1444.37,700.163 1447.71,704.7 L1448.56,719.983" id="Fill-44" fill="#F9B384"></path>
        <path d="M1394.22,1303.49 L1260.91,1253.41 L1278.48,1180.1 C1294.88,1214.03 1329.58,1256.11 1402.12,1269.92 L1394.22,1303.49" id="Fill-45" fill="#429C94"></path>
        <path d="M1597.06,812.733 C1599.35,820.026 1601.35,827.387 1603.28,834.764 C1605.26,842.127 1607.01,849.546 1608.75,856.966 C1610.46,864.393 1612.09,871.836 1613.54,879.322 C1614.98,886.811 1616.39,894.305 1617.44,901.884 L1615.49,902.328 C1613.14,895.049 1611.16,887.684 1609.2,880.314 C1607.26,872.941 1605.49,865.527 1603.8,858.095 C1602.15,850.657 1600.5,843.217 1599.08,835.722 C1597.62,828.24 1596.22,820.742 1595.12,813.177 L1597.06,812.733" id="Fill-46" fill="#1D7E74"></path>
        <path d="M1430.45,881.352 C1430.71,888.74 1430.66,896.113 1430.55,903.483 C1430.49,910.855 1430.18,918.216 1429.87,925.577 C1429.53,932.936 1429.11,940.291 1428.5,947.638 C1427.88,954.983 1427.24,962.328 1426.21,969.654 L1424.22,969.558 C1423.9,962.167 1423.97,954.795 1424.05,947.424 C1424.15,940.053 1424.44,932.691 1424.81,925.333 C1425.2,917.977 1425.6,910.621 1426.25,903.276 C1426.84,895.929 1427.5,888.585 1428.47,881.256 L1430.45,881.352" id="Fill-47" fill="#1D7E74"></path>
        <path d="M1501.54,1243.52 C1503.83,1235.12 1506.4,1226.81 1509.04,1218.52 C1511.63,1210.21 1514.55,1202.03 1517.29,1193.77 C1520.18,1185.57 1523.13,1177.4 1526.17,1169.25 C1529.29,1161.13 1532.42,1153.02 1535.93,1145.03 L1537.81,1145.69 C1535.58,1154.12 1532.98,1162.42 1530.37,1170.72 C1527.68,1178.98 1524.9,1187.22 1522.05,1195.44 C1519.06,1203.6 1516.25,1211.83 1513.11,1219.94 C1510.02,1228.07 1506.86,1236.17 1503.42,1244.18 L1501.54,1243.52" id="Fill-48" fill="#1D7E74"></path>
        <path d="M1438.17,710.777 C1437.27,709.527 1436.45,708.245 1435.57,707.059 C1434.67,705.9 1433.84,704.701 1432.82,703.888 C1431.83,702.993 1430.92,702.583 1429.98,702.829 C1428.93,702.964 1427.88,704.091 1426.71,705.033 L1425.73,704.411 C1426.38,702.927 1427.14,701.266 1429.12,700.377 C1431.17,699.45 1433.54,700.489 1434.76,701.671 C1437.3,704.195 1438.66,707.161 1439.25,710.36 L1438.17,710.777" id="Fill-49" fill="#102048"></path>
        <path d="M1727.06,578.762 C1728.91,571.738 1727.96,565.394 1724.92,564.592 C1721.89,563.791 1717.22,567.076 1715.37,574.1 C1713.51,581.125 1711.38,591.242 1716.16,593.501 C1724.64,597.505 1725.2,585.787 1727.06,578.762" id="Fill-50" fill="#F9B384"></path>
    </g>
</svg>