<?xml version="1.0" encoding="UTF-8"?>
<svg width="800px" height="800px" viewBox="0 0 800 800" version="1.1" xmlns="http://www.w3.org/2000/svg" xmlns:xlink="http://www.w3.org/1999/xlink">
    <title>Design</title>
    <g id="Page-1" stroke="none" stroke-width="1" fill="none" fill-rule="evenodd">
        <g id="Desktop" transform="translate(-1152.000000, -112.000000)">
            <g id="Design" transform="translate(1152.000000, 112.000000)">
                <rect id="Rectangle" x="0" y="0" width="800" height="800"></rect>
                <g id="Group" transform="translate(0.000000, 89.000000)" fill-rule="nonzero">
                    <g id="qa-self">
                        <polygon id="Path" fill="#FFE2D1" points="154.897297 191.453488 243.102703 191.453488 243.102703 292.55814 154.897297 292.55814"></polygon>
                        <path d="M245.520727,301.162791 L155.03452,301.162791 C150.226075,301.162791 146.291892,297.276566 146.291892,292.526736 L146.291892,191.484892 C146.291892,186.735062 150.226075,182.848837 155.03452,182.848837 L245.083596,182.848837 C249.892041,182.848837 253.826224,186.735062 253.826224,191.484892 L253.826224,292.526736 C254.263355,297.276566 250.329172,301.162791 245.520727,301.162791 Z M163.777149,283.890681 L236.340967,283.890681 L236.340967,200.120947 L163.777149,200.120947 L163.777149,283.890681 Z" id="Shape" fill="#131313"></path>
                        <path d="M196.182198,116.038164 L121.340893,75.2906977 C120.475676,79.1920506 120.475676,83.5268876 120.475676,87.4282405 L120.475676,167.622722 C120.475676,211.404575 155.949589,247.383721 200.075676,247.383721 C243.769154,247.383721 279.675676,211.838058 279.675676,167.622722 L279.675676,134.244479 L196.182198,83.960371 L196.182198,116.038164 Z" id="Path" fill="#FFE2D1"></path>
                        <path d="M200.075676,255.988372 C151.649179,255.988372 111.87027,216.500666 111.87027,167.466482 L111.87027,87.6232088 C111.87027,82.8499697 112.30265,78.5106613 113.167409,74.1713529 C113.599788,71.5677681 115.329306,68.9641827 117.923583,67.6623908 C120.517859,66.3605984 123.544515,66.3605984 125.706413,67.6623908 L187.536672,101.508996 L187.536672,84.1517622 C187.536672,81.1142462 189.26619,78.0767307 191.860466,76.7749383 C194.454743,75.0392147 197.913778,75.4731459 200.508055,76.7749383 L283.957287,127.110915 C286.551563,128.846638 288.281081,131.450223 288.281081,134.487739 L288.281081,167.900413 C288.281081,216.500666 248.934552,255.988372 200.075676,255.988372 L200.075676,255.988372 Z M129.597827,89.3589324 L129.597827,167.900413 C129.597827,206.954188 161.161526,239.06507 200.508055,239.06507 C239.854584,239.06507 271.418283,207.388119 271.418283,167.900413 L271.418283,139.260978 L205.264229,99.3393416 L205.264229,116.262644 C205.264229,119.30016 203.534711,122.337676 200.940435,123.639468 C198.346158,125.375192 194.887123,125.375192 192.292846,123.639468 L129.597827,89.3589324 Z" id="Shape" fill="#131313"></path>
                        <path d="M199.20573,8.60465116 C160.058189,8.60465116 126.565293,37.3903139 120.475676,76.6434907 L195.725949,117.641253 L195.725949,85.3664185 L279.675676,135.523256 L279.675676,88.8555897 C279.240703,44.3686563 243.572943,8.60465116 199.20573,8.60465116 Z" id="Path" fill="#FAF5BA"></path>
                        <path d="M279.572706,144.127907 C277.83103,144.127907 276.524774,143.693787 275.218518,142.825546 L204.680678,100.715887 L204.680678,117.212454 C204.680678,120.251296 202.939003,123.290137 200.326491,124.592498 C197.713978,126.328979 194.230628,126.328979 191.618115,124.592498 L116.290668,83.7851987 C113.242737,82.0487177 111.501062,78.5757561 111.936481,74.6686745 C118.903181,31.6907746 155.478358,0 199.455653,0 C248.222555,0 288.281081,39.5049383 288.281081,88.5605208 L288.281081,135.445503 C288.281081,138.484344 286.539406,141.523185 283.926893,142.825546 C282.620637,143.693786 280.878962,144.127907 279.572706,144.127907 Z M195.972303,76.4051556 C197.713978,76.4051556 199.020234,76.8392756 200.326491,77.7075161 L270.864331,119.817175 L270.864331,88.1264008 C270.864331,69.0251119 263.462211,51.2261835 249.96423,37.7684573 C236.466248,24.744851 218.614078,17.3648078 199.455653,17.3648078 L199.455653,8.68240419 L199.455653,17.3648078 C166.363827,17.3648078 138.061607,39.9390583 130.224069,71.629833 L186.828509,102.452368 L186.828509,85.0875592 C186.828509,82.0487177 188.570184,79.0098766 191.182696,77.7075161 C192.924371,76.8392756 194.230628,76.4051556 195.972303,76.4051556 Z" id="Shape" fill="#131313"></path>
                        <path d="M301.787059,292.55814 L270.12691,292.55814 L297.450052,373.127629 L267.958407,396.085602 L267.958407,427.706961 L199.867401,495.714541 L132.210097,426.407453 L132.210097,394.786094 L102.718451,371.828121 L130.041593,292.55814 L95.7792406,292.55814 C47.638466,292.55814 8.60540541,331.976546 8.60540541,380.058338 L8.60540541,546.395349 L389.394595,546.395349 L389.394595,380.058338 C389.394595,331.976546 350.361534,292.991309 301.787059,292.55814 L301.787059,292.55814 Z" id="Path" fill="#82C5BE"></path>
                        <path d="M389.721231,555 L8.67975979,555 C3.90589183,555 0,551.09693 0,546.326511 L0,379.795535 C0,326.887256 42.9648128,283.953488 95.9113499,283.953488 L130.196402,283.953488 C132.80033,283.953488 135.838246,285.254512 137.14021,287.422884 C138.442174,289.591256 139.31015,292.626977 138.442174,295.229023 L113.27087,368.953674 L137.574198,388.035349 C139.744138,389.770047 141.046102,392.372093 141.046103,394.974139 L141.046103,422.729302 L200.068472,483.010046 L259.524829,423.596651 L259.524829,395.841488 C259.524829,393.239442 260.826792,390.637395 262.996733,388.902698 L287.300061,369.821023 L262.128757,295.229023 C261.260781,292.626977 261.694769,289.591256 263.430721,287.422884 C265.166673,285.254512 267.770601,283.953488 270.374529,283.953488 L302.055654,283.953488 C327.660946,283.953488 351.964274,293.928 369.757783,312.142326 C387.985279,330.356651 397.967003,354.208744 397.967003,379.795535 L397.967003,546.326511 C398.400991,551.09693 394.495099,555 389.721231,555 L389.721231,555 Z M17.3595201,537.653023 L381.041471,537.653023 L381.041471,379.795535 C381.041471,358.979163 372.795699,339.03014 358.040107,324.285209 C343.284515,309.540279 323.321066,301.300465 302.489641,301.300465 L302.489641,292.626977 L302.489641,301.300465 L282.526193,301.300465 L305.961546,370.254697 C307.26351,373.724093 305.961546,377.627163 302.92363,379.795535 L276.884349,399.744558 L276.884349,427.066047 C276.884349,429.234419 276.016373,431.402791 274.280421,433.137488 L206.144304,501.224372 C204.408351,502.95907 202.238412,503.826418 200.068472,503.826419 C197.898532,503.826419 195.728592,502.95907 193.992639,501.224372 L126.29051,432.270139 C124.554558,430.535441 123.686582,428.36707 123.686582,426.198698 L123.686582,398.877209 L97.6473016,378.928186 C94.6093854,376.759814 93.7414098,372.856744 94.6093854,369.387349 L118.044738,301.300465 L95.9113499,301.300465 C52.5125487,301.300465 17.3595201,336.428093 17.3595201,379.795535 L17.3595201,537.653023 Z" id="Shape" fill="#131313"></path>
                        <polygon id="Path" fill="#A4C7C4" points="132.22167 394.959004 132.22167 426.068128 199.643485 494.767442 267.49749 426.93227 267.49749 395.823147 296.886486 372.923375 269.658446 292.55814 130.060714 292.55814 103.264865 372.059233"></polygon>
                        <path d="M199.984212,503.372093 C197.823572,503.372093 195.230804,502.50824 193.934419,500.780534 L126.522447,432.104239 C124.793935,430.376533 123.929679,428.216902 123.929679,426.05727 L123.929679,398.845908 L98.0019977,378.977294 C94.9771014,376.817662 94.1128457,372.930324 94.9771014,369.474913 L121.769039,290.000458 C123.065423,286.545047 126.090319,283.953488 129.979472,283.953488 L269.556824,283.953488 C273.445976,283.953488 276.470872,286.11312 277.767256,290.000458 L304.991322,370.338766 C306.287706,373.794177 304.991322,377.681515 301.966426,379.841146 L276.038744,399.70976 L276.038744,426.921123 C276.038744,429.080755 275.174488,431.240387 273.445976,432.968092 L205.601876,500.780534 C204.73762,502.50824 202.57698,503.372093 199.984212,503.372093 L199.984212,503.372093 Z M141.214801,422.601859 L199.984212,482.2077 L259.185751,423.465712 L259.185751,395.822423 C259.185751,393.230865 260.482135,390.639306 262.642775,388.911601 L286.841945,369.90684 L263.507031,301.230544 L136.461392,301.230544 L113.558607,369.042987 L137.757776,388.047748 C139.918416,389.775453 141.2148,392.367012 141.214801,394.95857 L141.214801,422.601859 Z" id="Shape" fill="#131313"></path>
                        <polygon id="Path" fill="#FFFFFF" points="173.672728 292.55814 131.232432 292.55814 178.436434 430.232558 197.924324 335.554251"></polygon>
                        <path d="M176.875807,438.403362 C173.40503,438.403362 169.934253,436.234122 168.632711,432.763338 L120.909523,295.233535 C120.041828,292.630448 120.475676,289.593512 122.211064,287.424272 C123.946453,285.255032 126.549536,283.953488 129.152619,283.953488 L171.669641,283.953488 C174.706571,283.953488 177.743501,285.68888 179.045043,288.291968 L203.340484,331.242916 C204.208178,332.978308 204.642025,335.147547 204.208178,337.316787 L184.685056,431.895642 C183.817362,435.800273 180.780432,438.403362 176.875807,438.837209 C177.309654,438.403362 177.309654,438.403362 176.875807,438.403362 L176.875807,438.403362 Z M141.734187,301.307406 L175.140418,397.621654 L187.288139,336.882939 L166.897322,301.307406 L141.734187,301.307406 L141.734187,301.307406 Z" id="Shape" fill="#131313"></path>
                        <polygon id="Path" fill="#FFFFFF" points="220.298378 434.534884 268.918919 292.55814 224.601081 292.55814 200.075676 335.673777"></polygon>
                        <path d="M220.268398,443.139535 L219.834641,443.139535 C215.930828,442.704601 212.894529,440.094993 212.027015,436.180582 L191.640435,337.450439 C191.206678,335.275766 191.640435,333.101093 192.507949,331.361355 L216.798342,288.302834 C218.533371,285.693227 221.135913,283.953488 224.172211,283.953488 L268.849184,283.953488 C271.451726,283.953488 274.488025,285.258292 275.789296,287.432965 C277.524324,289.607638 277.958081,292.65218 277.090567,295.261787 L228.509782,437.485386 C227.208511,440.964862 224.172211,443.139535 220.268398,443.139535 Z M209.424473,337.450439 L222.87094,402.255687 L257.571502,301.785805 L230.244809,301.785805 L209.424473,337.450439 Z" id="Shape" fill="#131313"></path>
                        <polygon id="Path" fill="#2B3038" points="225.891892 292.55814 172.108108 292.55814 196.795747 335.333184 176.957466 429.524697 191.946389 471.867671 199.881702 494.767442 208.257864 471.867671 221.483385 433.413337 200.763403 335.333184"></polygon>
                        <path d="M200.088874,503.372093 C196.168927,503.372093 193.12008,501.212461 191.81343,497.75705 L169.164848,432.536166 C168.729299,431.240387 168.729299,429.512681 168.729299,427.784975 L187.893484,337.080434 L164.809352,296.91128 C163.067153,294.319722 163.067153,290.864311 164.809352,288.272752 C166.551551,285.681194 169.164849,283.953488 172.213696,283.953488 L225.786304,283.953488 C228.835151,283.953488 231.883999,285.681194 233.190648,288.272752 C234.932847,290.86431 234.932847,294.319722 233.190648,296.91128 L210.542066,337.080434 L230.1418,432.104239 C230.57735,433.831945 230.1418,435.127724 229.706251,436.855429 L208.364318,497.75705 C207.057669,501.212461 204.008821,503.372093 200.088874,503.372093 Z M186.586835,429.080755 L200.088874,468.386056 L212.284265,432.968092 L198.782225,368.61106 L186.586835,429.080755 L186.586835,429.080755 Z M187.457934,301.66247 L199.217775,321.531084 L210.977615,301.66247 L187.457934,301.66247 L187.457934,301.66247 Z" id="Shape" fill="#131313"></path>
                        <path d="M200.075676,555 C195.342703,555 191.47027,551.078893 191.47027,546.286429 L191.47027,494.876362 C191.47027,490.083898 195.342703,486.162791 200.075676,486.162791 C204.808649,486.162791 208.681081,490.083897 208.681081,494.876362 L208.681081,546.286429 C208.681081,551.078893 204.808649,555 200.075676,555 Z" id="Path" fill="#131313"></path>
                        <path d="M337.762162,555 C333.029189,555 329.156757,551.08616 329.156757,546.302576 L329.156757,402.360215 C329.156757,397.576632 333.029189,393.662791 337.762162,393.662791 C342.495135,393.662791 346.367568,397.576631 346.367568,402.360215 L346.367568,546.302576 C346.367568,551.086159 342.495135,555 337.762162,555 Z" id="Path" fill="#131313"></path>
                        <path d="M60.2378381,555 C55.5048652,555 51.6324324,551.08616 51.6324324,546.302576 L51.6324324,402.360215 C51.6324324,397.576632 55.5048647,393.662791 60.2378381,393.662791 C64.9708116,393.662791 68.8432432,397.576631 68.8432432,402.360215 L68.8432432,546.302576 C68.8432432,551.086159 64.970811,555 60.2378381,555 L60.2378381,555 Z" id="Path" fill="#131313"></path>
                    </g>
                    <g id="qa-self" transform="translate(401.000000, 0.000000)">
                        <polygon id="Path" fill="#FFE2D1" points="154.897297 191.453488 243.102703 191.453488 243.102703 292.55814 154.897297 292.55814"></polygon>
                        <path d="M245.520727,301.162791 L155.03452,301.162791 C150.226075,301.162791 146.291892,297.276566 146.291892,292.526736 L146.291892,191.484892 C146.291892,186.735062 150.226075,182.848837 155.03452,182.848837 L245.083596,182.848837 C249.892041,182.848837 253.826224,186.735062 253.826224,191.484892 L253.826224,292.526736 C254.263355,297.276566 250.329172,301.162791 245.520727,301.162791 Z M163.777149,283.890681 L236.340967,283.890681 L236.340967,200.120947 L163.777149,200.120947 L163.777149,283.890681 Z" id="Shape" fill="#131313"></path>
                        <path d="M196.182198,116.038164 L121.340893,75.2906977 C120.475676,79.1920506 120.475676,83.5268876 120.475676,87.4282405 L120.475676,167.622722 C120.475676,211.404575 155.949589,247.383721 200.075676,247.383721 C243.769154,247.383721 279.675676,211.838058 279.675676,167.622722 L279.675676,134.244479 L196.182198,83.960371 L196.182198,116.038164 Z" id="Path" fill="#FFE2D1"></path>
                        <path d="M200.075676,255.988372 C151.649179,255.988372 111.87027,216.500666 111.87027,167.466482 L111.87027,87.6232088 C111.87027,82.8499697 112.30265,78.5106613 113.167409,74.1713529 C113.599788,71.5677681 115.329306,68.9641827 117.923583,67.6623908 C120.517859,66.3605984 123.544515,66.3605984 125.706413,67.6623908 L187.536672,101.508996 L187.536672,84.1517622 C187.536672,81.1142462 189.26619,78.0767307 191.860466,76.7749383 C194.454743,75.0392147 197.913778,75.4731459 200.508055,76.7749383 L283.957287,127.110915 C286.551563,128.846638 288.281081,131.450223 288.281081,134.487739 L288.281081,167.900413 C288.281081,216.500666 248.934552,255.988372 200.075676,255.988372 L200.075676,255.988372 Z M129.597827,89.3589324 L129.597827,167.900413 C129.597827,206.954188 161.161526,239.06507 200.508055,239.06507 C239.854584,239.06507 271.418283,207.388119 271.418283,167.900413 L271.418283,139.260978 L205.264229,99.3393416 L205.264229,116.262644 C205.264229,119.30016 203.534711,122.337676 200.940435,123.639468 C198.346158,125.375192 194.887123,125.375192 192.292846,123.639468 L129.597827,89.3589324 Z" id="Shape" fill="#131313"></path>
                        <path d="M199.20573,8.60465116 C160.058189,8.60465116 126.565293,37.3903139 120.475676,76.6434907 L195.725949,117.641253 L195.725949,85.3664185 L279.675676,135.523256 L279.675676,88.8555897 C279.240703,44.3686563 243.572943,8.60465116 199.20573,8.60465116 Z" id="Path" fill="#1E1510"></path>
                        <path d="M279.572706,144.127907 C277.83103,144.127907 276.524774,143.693787 275.218518,142.825546 L204.680678,100.715887 L204.680678,117.212454 C204.680678,120.251296 202.939003,123.290137 200.326491,124.592498 C197.713978,126.328979 194.230628,126.328979 191.618115,124.592498 L116.290668,83.7851987 C113.242737,82.0487177 111.501062,78.5757561 111.936481,74.6686745 C118.903181,31.6907746 155.478358,0 199.455653,0 C248.222555,0 288.281081,39.5049383 288.281081,88.5605208 L288.281081,135.445503 C288.281081,138.484344 286.539406,141.523185 283.926893,142.825546 C282.620637,143.693786 280.878962,144.127907 279.572706,144.127907 Z M195.972303,76.4051556 C197.713978,76.4051556 199.020234,76.8392756 200.326491,77.7075161 L270.864331,119.817175 L270.864331,88.1264008 C270.864331,69.0251119 263.462211,51.2261835 249.96423,37.7684573 C236.466248,24.744851 218.614078,17.3648078 199.455653,17.3648078 L199.455653,8.68240419 L199.455653,17.3648078 C166.363827,17.3648078 138.061607,39.9390583 130.224069,71.629833 L186.828509,102.452368 L186.828509,85.0875592 C186.828509,82.0487177 188.570184,79.0098766 191.182696,77.7075161 C192.924371,76.8392756 194.230628,76.4051556 195.972303,76.4051556 Z" id="Shape" fill="#131313"></path>
                        <path d="M301.787059,292.55814 L270.12691,292.55814 L297.450052,373.127629 L267.958407,396.085602 L267.958407,427.706961 L199.867401,495.714541 L132.210097,426.407453 L132.210097,394.786094 L102.718451,371.828121 L130.041593,292.55814 L95.7792406,292.55814 C47.638466,292.55814 8.60540541,331.976546 8.60540541,380.058338 L8.60540541,546.395349 L389.394595,546.395349 L389.394595,380.058338 C389.394595,331.976546 350.361534,292.991309 301.787059,292.55814 L301.787059,292.55814 Z" id="Path" fill="#FFDDD2"></path>
                        <path d="M389.721231,555 L8.67975979,555 C3.90589183,555 0,551.09693 0,546.326511 L0,379.795535 C0,326.887256 42.9648128,283.953488 95.9113499,283.953488 L130.196402,283.953488 C132.80033,283.953488 135.838246,285.254512 137.14021,287.422884 C138.442174,289.591256 139.31015,292.626977 138.442174,295.229023 L113.27087,368.953674 L137.574198,388.035349 C139.744138,389.770047 141.046102,392.372093 141.046103,394.974139 L141.046103,422.729302 L200.068472,483.010046 L259.524829,423.596651 L259.524829,395.841488 C259.524829,393.239442 260.826792,390.637395 262.996733,388.902698 L287.300061,369.821023 L262.128757,295.229023 C261.260781,292.626977 261.694769,289.591256 263.430721,287.422884 C265.166673,285.254512 267.770601,283.953488 270.374529,283.953488 L302.055654,283.953488 C327.660946,283.953488 351.964274,293.928 369.757783,312.142326 C387.985279,330.356651 397.967003,354.208744 397.967003,379.795535 L397.967003,546.326511 C398.400991,551.09693 394.495099,555 389.721231,555 L389.721231,555 Z M17.3595201,537.653023 L381.041471,537.653023 L381.041471,379.795535 C381.041471,358.979163 372.795699,339.03014 358.040107,324.285209 C343.284515,309.540279 323.321066,301.300465 302.489641,301.300465 L302.489641,292.626977 L302.489641,301.300465 L282.526193,301.300465 L305.961546,370.254697 C307.26351,373.724093 305.961546,377.627163 302.92363,379.795535 L276.884349,399.744558 L276.884349,427.066047 C276.884349,429.234419 276.016373,431.402791 274.280421,433.137488 L206.144304,501.224372 C204.408351,502.95907 202.238412,503.826418 200.068472,503.826419 C197.898532,503.826419 195.728592,502.95907 193.992639,501.224372 L126.29051,432.270139 C124.554558,430.535441 123.686582,428.36707 123.686582,426.198698 L123.686582,398.877209 L97.6473016,378.928186 C94.6093854,376.759814 93.7414098,372.856744 94.6093854,369.387349 L118.044738,301.300465 L95.9113499,301.300465 C52.5125487,301.300465 17.3595201,336.428093 17.3595201,379.795535 L17.3595201,537.653023 Z" id="Shape" fill="#131313"></path>
                        <polygon id="Path" fill="#FFF1ED" points="132.22167 394.959004 132.22167 426.068128 199.643485 494.767442 267.49749 426.93227 267.49749 395.823147 296.886486 372.923375 269.658446 292.55814 130.060714 292.55814 103.264865 372.059233"></polygon>
                        <path d="M199.984212,503.372093 C197.823572,503.372093 195.230804,502.50824 193.934419,500.780534 L126.522447,432.104239 C124.793935,430.376533 123.929679,428.216902 123.929679,426.05727 L123.929679,398.845908 L98.0019977,378.977294 C94.9771014,376.817662 94.1128457,372.930324 94.9771014,369.474913 L121.769039,290.000458 C123.065423,286.545047 126.090319,283.953488 129.979472,283.953488 L269.556824,283.953488 C273.445976,283.953488 276.470872,286.11312 277.767256,290.000458 L304.991322,370.338766 C306.287706,373.794177 304.991322,377.681515 301.966426,379.841146 L276.038744,399.70976 L276.038744,426.921123 C276.038744,429.080755 275.174488,431.240387 273.445976,432.968092 L205.601876,500.780534 C204.73762,502.50824 202.57698,503.372093 199.984212,503.372093 L199.984212,503.372093 Z M141.214801,422.601859 L199.984212,482.2077 L259.185751,423.465712 L259.185751,395.822423 C259.185751,393.230865 260.482135,390.639306 262.642775,388.911601 L286.841945,369.90684 L263.507031,301.230544 L136.461392,301.230544 L113.558607,369.042987 L137.757776,388.047748 C139.918416,389.775453 141.2148,392.367012 141.214801,394.95857 L141.214801,422.601859 Z" id="Shape" fill="#131313"></path>
                        <polygon id="Path" fill="#FFFFFF" points="173.672728 292.55814 131.232432 292.55814 178.436434 430.232558 197.924324 335.554251"></polygon>
                        <path d="M176.875807,438.403362 C173.40503,438.403362 169.934253,436.234122 168.632711,432.763338 L120.909523,295.233535 C120.041828,292.630448 120.475676,289.593512 122.211064,287.424272 C123.946453,285.255032 126.549536,283.953488 129.152619,283.953488 L171.669641,283.953488 C174.706571,283.953488 177.743501,285.68888 179.045043,288.291968 L203.340484,331.242916 C204.208178,332.978308 204.642025,335.147547 204.208178,337.316787 L184.685056,431.895642 C183.817362,435.800273 180.780432,438.403362 176.875807,438.837209 C177.309654,438.403362 177.309654,438.403362 176.875807,438.403362 L176.875807,438.403362 Z M141.734187,301.307406 L175.140418,397.621654 L187.288139,336.882939 L166.897322,301.307406 L141.734187,301.307406 L141.734187,301.307406 Z" id="Shape" fill="#131313"></path>
                        <polygon id="Path" fill="#FFFFFF" points="220.298378 434.534884 268.918919 292.55814 224.601081 292.55814 200.075676 335.673777"></polygon>
                        <path d="M220.268398,443.139535 L219.834641,443.139535 C215.930828,442.704601 212.894529,440.094993 212.027015,436.180582 L191.640435,337.450439 C191.206678,335.275766 191.640435,333.101093 192.507949,331.361355 L216.798342,288.302834 C218.533371,285.693227 221.135913,283.953488 224.172211,283.953488 L268.849184,283.953488 C271.451726,283.953488 274.488025,285.258292 275.789296,287.432965 C277.524324,289.607638 277.958081,292.65218 277.090567,295.261787 L228.509782,437.485386 C227.208511,440.964862 224.172211,443.139535 220.268398,443.139535 Z M209.424473,337.450439 L222.87094,402.255687 L257.571502,301.785805 L230.244809,301.785805 L209.424473,337.450439 Z" id="Shape" fill="#131313"></path>
                        <polygon id="Path" fill="#2B3038" points="225.891892 292.55814 172.108108 292.55814 196.795747 335.333184 176.957466 429.524697 191.946389 471.867671 199.881702 494.767442 208.257864 471.867671 221.483385 433.413337 200.763403 335.333184"></polygon>
                        <path d="M200.088874,503.372093 C196.168927,503.372093 193.12008,501.212461 191.81343,497.75705 L169.164848,432.536166 C168.729299,431.240387 168.729299,429.512681 168.729299,427.784975 L187.893484,337.080434 L164.809352,296.91128 C163.067153,294.319722 163.067153,290.864311 164.809352,288.272752 C166.551551,285.681194 169.164849,283.953488 172.213696,283.953488 L225.786304,283.953488 C228.835151,283.953488 231.883999,285.681194 233.190648,288.272752 C234.932847,290.86431 234.932847,294.319722 233.190648,296.91128 L210.542066,337.080434 L230.1418,432.104239 C230.57735,433.831945 230.1418,435.127724 229.706251,436.855429 L208.364318,497.75705 C207.057669,501.212461 204.008821,503.372093 200.088874,503.372093 Z M186.586835,429.080755 L200.088874,468.386056 L212.284265,432.968092 L198.782225,368.61106 L186.586835,429.080755 L186.586835,429.080755 Z M187.457934,301.66247 L199.217775,321.531084 L210.977615,301.66247 L187.457934,301.66247 L187.457934,301.66247 Z" id="Shape" fill="#131313"></path>
                        <path d="M200.075676,555 C195.342703,555 191.47027,551.078893 191.47027,546.286429 L191.47027,494.876362 C191.47027,490.083898 195.342703,486.162791 200.075676,486.162791 C204.808649,486.162791 208.681081,490.083897 208.681081,494.876362 L208.681081,546.286429 C208.681081,551.078893 204.808649,555 200.075676,555 Z" id="Path" fill="#131313"></path>
                        <path d="M337.762162,555 C333.029189,555 329.156757,551.08616 329.156757,546.302576 L329.156757,402.360215 C329.156757,397.576632 333.029189,393.662791 337.762162,393.662791 C342.495135,393.662791 346.367568,397.576631 346.367568,402.360215 L346.367568,546.302576 C346.367568,551.086159 342.495135,555 337.762162,555 Z" id="Path" fill="#131313"></path>
                        <path d="M60.2378381,555 C55.5048652,555 51.6324324,551.08616 51.6324324,546.302576 L51.6324324,402.360215 C51.6324324,397.576632 55.5048647,393.662791 60.2378381,393.662791 C64.9708116,393.662791 68.8432432,397.576631 68.8432432,402.360215 L68.8432432,546.302576 C68.8432432,551.086159 64.970811,555 60.2378381,555 L60.2378381,555 Z" id="Path" fill="#131313"></path>
                    </g>
                </g>
            </g>
        </g>
    </g>
</svg>