<?xml version="1.0" encoding="UTF-8"?>
<svg width="800px" height="800px" viewBox="0 0 800 800" version="1.1" xmlns="http://www.w3.org/2000/svg" xmlns:xlink="http://www.w3.org/1999/xlink">
    <title>Self</title>
    <g id="Page-1" stroke="none" stroke-width="1" fill="none" fill-rule="evenodd">
        <g id="Desktop" transform="translate(-2192.000000, -78.000000)">
            <g id="Self" transform="translate(2192.000000, 78.000000)">
                <rect id="Rectangle" x="0" y="0" width="800" height="800"></rect>
                <g id="Group" transform="translate(138.000000, 37.000000)" fill-rule="nonzero">
                    <g id="qa-self">
                        <polygon id="Path" fill="#FFE2D1" points="202.821577 252.053412 319.3361 252.053412 319.3361 383.465875 202.821577 383.465875"></polygon>
                        <path d="M319.252258,394.237389 L201.27435,394.237389 C195.004993,394.237389 189.875519,389.142542 189.875519,382.915507 L189.875519,250.449479 C189.875519,244.222444 195.004993,239.127596 201.27435,239.127596 L318.682317,239.127596 C324.951674,239.127596 330.081149,244.222443 330.081148,250.449479 L330.081148,382.915507 C330.651089,389.142542 325.521615,394.237389 319.252258,394.237389 Z M212.673182,371.593624 L307.283485,371.593624 L307.283485,261.771362 L212.673182,261.771362 L212.673182,371.593624 Z" id="Shape" fill="#131313"></path>
                        <path d="M257.039059,152.146948 L158.647844,99.0979228 C157.510373,104.177084 157.510373,109.820598 157.510373,114.89976 L157.510373,219.304756 C157.510373,276.30424 204.146672,323.145401 262.157676,323.145401 C319.599946,323.145401 366.804979,276.868591 366.804979,219.304756 L366.804979,175.849704 L257.039059,110.384949 L257.039059,152.146948 Z" id="Path" fill="#FFE2D1"></path>
                        <path d="M262.157677,336.071217 C198.781222,336.071217 146.721992,284.392644 146.721992,220.22035 L146.721992,115.727411 C146.721992,109.48055 147.287853,103.801586 148.419576,98.1226219 C148.985437,94.7152437 151.248882,91.3078647 154.644049,89.6041763 C158.039216,87.9004872 162.000245,87.9004872 164.829551,89.6041763 L245.747702,133.900096 L245.747702,111.184239 C245.747702,107.208964 248.011147,103.23369 251.406313,101.530001 C254.80148,99.2584149 259.32837,99.8263117 262.723538,101.530001 L371.934749,167.405984 C375.329916,169.67757 377.593361,173.084948 377.593361,177.060223 L377.593361,220.788246 C377.593361,284.392644 326.099992,336.071217 262.157677,336.071217 L262.157677,336.071217 Z M169.922301,117.998997 L169.922301,220.788246 C169.922301,271.898923 211.230169,313.923257 262.723538,313.923257 C314.216907,313.923257 355.524774,272.466819 355.524774,220.788246 L355.524774,183.307083 L268.948011,131.060614 L268.948011,153.208574 C268.948011,157.183849 266.684566,161.159123 263.289399,162.862812 C259.894232,165.134398 255.367343,165.134398 251.972175,162.862812 L169.922301,117.998997 Z" id="Shape" fill="#131313"></path>
                        <path d="M262.104619,10.7715134 C211.169308,10.7715134 167.591321,47.9054725 159.66805,98.5426902 L257.577036,151.43045 L257.577036,109.795405 L366.804979,174.498516 L366.804979,114.296491 C366.239031,56.9076444 319.831304,10.7715134 262.104619,10.7715134 Z" id="Path" fill="#B08A77"></path>
                        <path d="M364.14542,187.424332 C361.887367,187.424332 360.193827,186.859801 358.500289,185.730738 L267.049147,130.97122 L267.049147,152.423403 C267.049147,156.375121 264.791094,160.326838 261.404016,162.020431 C258.016937,164.278556 253.500831,164.278556 250.113751,162.020431 L152.452965,108.954506 C148.501372,106.696381 146.243319,102.180132 146.807833,97.0993527 C155.840044,41.2107718 203.259154,0 260.274989,0 C323.500469,0 375.435685,51.372332 375.435685,115.164348 L375.435685,176.13371 C375.435685,180.085428 373.177631,184.037145 369.790552,185.730738 C368.097013,186.859801 365.83896,187.424332 364.14542,187.424332 Z M255.758883,99.3574775 C258.016937,99.3574775 259.710476,99.9220083 261.404016,101.051071 L352.855156,155.810589 L352.855156,114.599817 C352.855156,89.7604481 343.258431,66.614672 325.758522,49.1142072 C308.258612,32.1782732 285.11357,22.5812446 260.274989,22.5812446 L260.274989,11.2906226 L260.274989,22.5812446 C217.371985,22.5812446 180.678626,51.9368628 170.517388,93.1476346 L243.904106,133.229345 L243.904106,110.648099 C243.904106,106.696381 246.162159,102.744664 249.549238,101.051071 C251.807291,99.9220083 253.50083,99.3574775 255.758883,99.3574775 Z" id="Shape" fill="#131313"></path>
                        <path d="M395.036626,383.465875 L353.775366,383.465875 L389.384398,488.769367 L350.949253,518.7752 L350.949253,560.103989 L262.209284,648.989194 L174.034537,558.405546 L174.034537,517.076757 L135.599392,487.070923 L171.208424,383.465875 L126.555828,383.465875 C63.8161044,383.465875 12.9460581,434.985325 12.9460581,497.827731 L12.9460581,715.228487 L509.211618,715.228487 L509.211618,497.827731 C509.211618,434.985325 458.341572,384.032024 395.036626,383.465875 L395.036626,383.465875 Z" id="Path" fill="#006C77"></path>
                        <path d="M509.183518,726 L11.3403897,726 C5.10317525,726 0,720.912399 0,714.694219 L0,497.623236 C0,428.657975 56.1349313,372.694362 125.311311,372.694362 L170.105852,372.694362 C173.507969,372.694362 177.477106,374.390229 179.178164,377.216674 C180.879223,380.043119 182.013262,384.000143 180.879223,387.391877 L147.992091,483.49101 L179.745184,508.363727 C182.580281,510.624883 184.28134,514.016617 184.28134,517.408351 L184.28134,553.586849 L261.395993,632.162022 L339.077665,554.717427 L339.077665,518.538929 C339.077665,515.147195 340.778724,511.755461 343.613821,509.494305 L375.366914,484.621588 L342.479783,387.391877 C341.345744,384.000143 341.912764,380.043119 344.180841,377.216674 C346.448919,374.390229 349.851037,372.694362 353.253153,372.694362 L394.645577,372.694362 C428.099729,372.694362 459.852821,385.69601 483.100621,409.438148 C506.91544,433.180287 519.956889,464.271183 519.956889,497.623236 L519.956889,714.694219 C520.523908,720.912398 515.420733,726 509.183518,726 L509.183518,726 Z M22.6807801,703.388439 L497.843128,703.388439 L497.843128,497.623236 C497.843128,470.489363 487.069758,444.486068 467.791094,425.266241 C448.512431,406.046414 422.429533,395.305923 395.212597,395.305923 L395.212597,384.000143 L395.212597,395.305923 L369.1297,395.305923 L399.748753,485.186877 C401.449812,489.709189 399.748753,494.796791 395.779617,497.623236 L361.758446,523.62653 L361.758446,559.239739 C361.758446,562.066184 360.624407,564.892629 358.356329,567.153785 L269.334266,655.904161 C267.066188,658.165318 264.231091,659.295895 261.395993,659.295896 C258.560896,659.295896 255.725798,658.165318 253.45772,655.904161 L165.002676,566.023207 C162.734598,563.76205 161.600559,560.935606 161.600559,558.109161 L161.600559,522.495953 L127.579389,496.492657 C123.610252,493.666212 122.476214,488.578611 123.610252,484.056299 L154.229306,395.305923 L125.311311,395.305923 C68.6093601,395.305923 22.6807801,441.094333 22.6807801,497.623236 L22.6807801,703.388439 Z" id="Shape" fill="#131313"></path>
                        <polygon id="Path" fill="#82C5BE" points="173.68813 517.654074 173.68813 558.42011 261.594176 648.445104 350.063723 559.5525 350.063723 518.786464 388.381743 488.778133 352.881224 383.465875 170.870628 383.465875 135.93361 487.645743"></polygon>
                        <path d="M260.959024,659.216617 C258.128667,659.216617 254.732238,658.088577 253.034023,655.832496 L164.72687,566.153286 C162.462583,563.897205 161.330441,561.077105 161.330441,558.257004 L161.330441,522.723732 L127.366151,496.778803 C123.403651,493.958702 122.271508,488.882521 123.403651,484.37036 L158.500084,380.590645 C160.198298,376.078484 164.160799,372.694362 169.255442,372.694362 L352.096535,372.694362 C357.191178,372.694362 361.153678,375.514463 362.851893,380.590645 L398.514397,485.498399 C400.212611,490.010561 398.514397,495.086743 394.551896,497.906844 L360.587606,523.851772 L360.587606,559.385044 C360.587606,562.205145 359.455463,565.025246 357.191178,567.281327 L268.317953,655.832496 C267.18581,658.088577 264.355453,659.216617 260.959024,659.216617 L260.959024,659.216617 Z M183.973301,553.744842 L260.959024,631.579628 L338.510818,554.872883 L338.510818,518.775591 C338.510818,515.39147 340.209033,512.007348 343.03939,509.751268 L374.739394,484.934379 L344.171533,395.25517 L177.746514,395.25517 L147.744725,483.806339 L179.444729,508.623227 C182.275086,510.879308 183.9733,514.263429 183.973301,517.64755 L183.973301,553.744842 Z" id="Shape" fill="#131313"></path>
                        <polygon id="Path" fill="#FFFFFF" points="225.379103 383.465875 170.456432 383.465875 231.543892 562.272997 256.763485 439.307847"></polygon>
                        <path d="M231.481229,574.631574 C226.929176,574.631574 222.377124,571.795377 220.670104,567.257462 L158.07938,387.442585 C156.941367,384.039149 157.510374,380.068474 159.7864,377.232277 C162.062426,374.39608 165.476466,372.694362 168.890506,372.694362 L224.65315,372.694362 C228.636196,372.694362 232.619242,374.96332 234.326262,378.366756 L266.19063,434.523452 C267.328643,436.79241 267.89765,439.628606 267.328643,442.464803 L241.723347,566.122983 C240.585334,571.228137 236.602289,574.631574 231.481229,575.198813 C232.050235,574.631574 232.050235,574.631574 231.481229,574.631574 L231.481229,574.631574 Z M185.391696,395.383936 L229.205202,521.311074 L245.137387,441.897564 L218.394078,395.383936 L185.391696,395.383936 L185.391696,395.383936 Z" id="Shape" fill="#131313"></path>
                        <polygon id="Path" fill="#FFFFFF" points="289.856847 568.735905 353.858921 383.465875 295.520746 383.465875 263.236515 439.72886"></polygon>
                        <path d="M289.995766,579.507418 L289.430224,579.507418 C284.340347,578.942356 280.381553,575.551977 279.250469,570.466411 L252.669998,442.197111 C252.104456,439.371796 252.669998,436.546481 253.801082,434.286229 L285.471431,378.344992 C287.733599,374.954614 291.12685,372.694362 295.085643,372.694362 L353.336464,372.694362 C356.729716,372.694362 360.688509,374.389551 362.385135,377.214867 C364.647303,380.040182 365.212845,383.995623 364.081761,387.386 L300.741063,572.161599 C299.044437,576.682103 295.085643,579.507418 289.995766,579.507418 Z M275.857217,442.197111 L293.389018,526.391497 L338.632374,395.861945 L303.00323,395.861945 L275.857217,442.197111 Z" id="Shape" fill="#131313"></path>
                        <polygon id="Path" fill="#2B3038" points="295.60166 383.465875 226.556017 383.465875 258.249099 439.519174 232.781443 562.949669 252.023672 618.436773 262.210734 648.445104 272.963744 618.436773 289.942181 568.045423 263.34263 439.519174"></polygon>
                        <path d="M261.423007,659.216617 C256.300181,659.216617 252.31576,656.396516 250.608151,651.884355 L221.009597,566.717307 C220.440394,565.025246 220.440394,562.769165 220.440394,560.513084 L245.485324,442.068845 L215.317568,389.614968 C213.040755,386.230847 213.040755,381.718686 215.317568,378.334564 C217.59438,374.950443 221.009597,372.694362 224.994018,372.694362 L295.005982,372.694362 C298.990403,372.694362 302.974823,374.950443 304.682432,378.334564 C306.959245,381.718685 306.959245,386.230846 304.682432,389.614968 L275.083878,442.068845 L300.698011,566.153286 C301.267214,568.409367 300.698011,570.101428 300.128809,572.357508 L272.237863,651.884355 C270.530255,656.396516 266.545834,659.216617 261.423007,659.216617 Z M243.777716,562.205145 L261.423007,613.530982 L277.360691,567.281327 L259.715399,483.242319 L243.777716,562.205145 L243.777716,562.205145 Z M244.916122,395.81919 L260.284601,421.764119 L275.653081,395.81919 L244.916122,395.81919 L244.916122,395.81919 Z" id="Shape" fill="#131313"></path>
                        <path d="M261.078839,726 C255.145229,726 250.290456,720.846036 250.290456,714.546745 L250.290456,646.972543 C250.290456,640.673253 255.145228,635.519288 261.078839,635.519288 C267.012449,635.519288 271.86722,640.673252 271.86722,646.972543 L271.86722,714.546745 C271.86722,720.846035 267.012448,726 261.078839,726 Z" id="Path" fill="#131313"></path>
                        <path d="M442.323651,726 C436.390041,726 431.53527,720.930711 431.53527,714.734913 L431.53527,528.297728 C431.53527,522.10193 436.390041,517.032641 442.323651,517.032641 C448.257261,517.032641 453.112033,522.10193 453.112033,528.297728 L453.112033,714.734913 C453.112033,720.930711 448.257262,726 442.323651,726 Z" id="Path" fill="#131313"></path>
                        <path d="M77.6763489,726 C71.742739,726 66.8879668,720.930711 66.8879668,714.734913 L66.8879668,528.297728 C66.8879668,522.10193 71.7427383,517.032641 77.6763489,517.032641 C83.6099594,517.032641 88.4647303,522.10193 88.4647303,528.297728 L88.4647303,714.734913 C88.4647303,720.930711 83.6099588,726 77.6763489,726 L77.6763489,726 Z" id="Path" fill="#131313"></path>
                    </g>
                </g>
            </g>
        </g>
    </g>
</svg>